# xmcd
# Copyright (C) 1995-1998 Ti Kan
#
# Track frame offsets:
#       150
#       17159
#       33466
#       51365
#       68953
#       86625
#       105228
#       123012
#       141173
#       152983
#
# Disc length: 2260 seconds
#
# Revision: 0
# Processed by: cddbd v1.5.1PL0 Copyright (c) Steve Scherf et al.
# Submitted via: CD-Transfer v1.0
#
DISCID=8108d20a
DTITLE=Cherry Moon - Inside
DYEAR=05
DGENRE=
TTITLE0=Inside
TTITLE1=Catch
TTITLE2=Burning
TTITLE3=Cry For Love
TTITLE4=Dreaming
TTITLE5=Fools For You
TTITLE6=Hey Girl
TTITLE7=Wasting My Time
TTITLE8=Shout It Out
TTITLE9=Time
EXTD=
EXTT0=
EXTT1=
EXTT2=
EXTT3=
EXTT4=
EXTT5=
EXTT6=
EXTT7=
EXTT8=
EXTT9=
PLAYORDER=
